<svg xmlns="http://www.w3.org/2000/svg" width="400.48" height="400.46" viewBox="0 0 400.48 400.46">
  <title>Asset 1</title>
  <g id="Layer_2" data-name="Layer 2">
    <g id="gameui-all">
      <g id="gameui-clip-group">
        <g id="gameui-bottom">
          <path id="gameui-gear-left" d="M200.25,2.5a197.58,197.58,0,0,0-39.55,4V37.09a165.86,165.86,0,0,0-47.9,19.77L91.18,35.24A212.52,212.52,0,0,0,35.25,91.17l21.63,21.64A166.36,166.36,0,0,0,37.11,160.7H6.52a196.56,196.56,0,0,0,0,79.1H37.11a166.53,166.53,0,0,0,19.77,47.9L35.25,309.33a212,212,0,0,0,55.93,55.91l21.63-21.63a166.53,166.53,0,0,0,47.9,19.77V394a197.53,197.53,0,0,0,79.1,0V363.38a166.53,166.53,0,0,0,47.9-19.77l21.63,21.63a212.37,212.37,0,0,0,55.91-55.91L343.62,287.7a166.53,166.53,0,0,0,19.77-47.9H394a197.53,197.53,0,0,0,0-79.1H363.41a166.53,166.53,0,0,0-19.77-47.9l21.61-21.63a200.1,200.1,0,0,0-25.34-30.59,198.88,198.88,0,0,0-30.57-25.34L287.71,56.88a166.16,166.16,0,0,0-47.9-19.78V6.52A197.63,197.63,0,0,0,200.25,2.5Zm0,116.42a81.32,81.32,0,1,1-81.32,81.32A81.34,81.34,0,0,1,200.25,118.92Z" style="fill: #a0a0a0;stroke: #000;stroke-linecap: round;stroke-linejoin: round;stroke-width: 5px"/>
        </g>
      </g>
    </g>
  </g>
</svg>
