<svg id="Layer_1" data-name="Layer 1" xmlns="http://www.w3.org/2000/svg" width="8640" height="1300" viewBox="0 0 8640 1300">
  <title>zigzag6-01</title>
  <g>
    <path d="M.5,328.5h459a34.2,34.2,0,0,1,17.91,6.12L876.59,643.38a34.2,34.2,0,0,0,17.91,6.12h636a10,10,0,0,1,10,10v309a10,10,0,0,0,10,10h583a33.53,33.53,0,0,0,17.84-6.21l627.32-496.58a33.53,33.53,0,0,1,17.84-6.21h1192a35.32,35.32,0,0,1,18,6l667,497a35.32,35.32,0,0,0,18,6h804a10,10,0,0,0,10-10L5506-81a10,10,0,0,1,10-10h221a10.08,10.08,0,0,1,10,10l1.44,399.5a10.08,10.08,0,0,0,10,10h494a10,10,0,0,1,10,10v301a10,10,0,0,0,10,10h683a38.11,38.11,0,0,1,18.26,5.63l466.48,317.74a13.64,13.64,0,0,0,15.78-1l360-315.82c4.14-3.62,12-6.57,17.52-6.54l806,4" style="fill: none;stroke: #fdff74;stroke-miterlimit: 10;stroke-width: 10px"/>
    <path d="M237,0V1067a10,10,0,0,0,10,10h918a10,10,0,0,0,10-10V390a10,10,0,0,1,10-10h846c5.5,0,13.24,3.13,17.19,6.95l521.62,504.1c4,3.82,11.69,7,17.19,7h721a10,10,0,0,0,10-10V-35a10,10,0,0,1,10-10h269a10,10,0,0,1,10,10l-.06,307a10,10,0,0,0,10,10H4469a10,10,0,0,1,10,10V513a10,10,0,0,0,10,10H5781a39.61,39.61,0,0,1,18.37,5.48l528.26,346A39.61,39.61,0,0,0,6346,880h596c5.5,0,13.29-3.07,17.3-6.83l575.4-538.34c4-3.76,11.8-6.83,17.3-6.83h219.26a10,10,0,0,0,10-10L7781-35a10,10,0,0,1,10-10h230a10.12,10.12,0,0,1,10.08,10L8034,318a10.13,10.13,0,0,0,10.08,10H8639.5" style="fill: none;stroke: #ffae7f;stroke-miterlimit: 10;stroke-width: 10px"/>
    <path d="M1,871.26H423c5.5,0,13.18-3.18,17.07-7.07L827.93,476.07C831.82,472.18,839.5,469,845,469h971a10,10,0,0,1,10,10v893a10,10,0,0,0,10,10h157a10.08,10.08,0,0,0,10-10l3.11-692a10.09,10.09,0,0,1,10-10H3004a35.15,35.15,0,0,1,18,6l455,341a35.15,35.15,0,0,0,18,6h331a10,10,0,0,0,10-10V801a10,10,0,0,1,10-10h723.77a10,10,0,0,1,10,10l.22,571a10,10,0,0,0,10,10h156a10,10,0,0,0,10-10V390a10,10,0,0,1,10-10h381a10,10,0,0,1,10,10v623a10,10,0,0,0,10,10h740c5.5,0,13.1-3.26,16.9-7.24l700.2-735.52c3.8-4,11.4-7.24,16.9-7.24h310a34.68,34.68,0,0,1,17.95,6.06l476.1,362.88a11.76,11.76,0,0,0,15-1L7615,485.09c3.88-3.9,11.55-7.09,17.05-7.09h489a10,10,0,0,1,10,10V852a10,10,0,0,0,10,10h248a10,10,0,0,1,10,10v428" style="fill: none;stroke: #aafdff;stroke-miterlimit: 10;stroke-width: 10px"/>
  </g>
  <g style="opacity: 0">
    <polyline points="0.5 328.5 469.5 328.5 884.5 649.5 1540.5 649.5 1540.5 978.5 2143.5 978.5 2786.5 469.5 3998.5 469.5 4681.5 978.5 5505.5 978.5 5506 -91 5747 -91 5748.52 328.5 6262.5 328.5 6262.5 649.5 6965.5 649.5 7448.5 978.5 7823.5 649.5 8639.5 653.5" style="fill: none;stroke: #fdff74;stroke-miterlimit: 10;stroke-width: 10px;fill-rule: evenodd"/>
    <polyline points="237 0 237 1077 1175 1077 1175 380 2041 380 2577 898 3318 898 3318 -45 3607 -45 3606.94 282 4479 282 4479 523 5791 523 6336 880 6952 880 7542 328 7781.26 328 7781 -45 8031 -45 8034.09 328 8639.5 328" style="fill: none;stroke: #ffae7f;stroke-miterlimit: 10;stroke-width: 10px;fill-rule: evenodd"/>
    <polyline points="1 871.26 433 871.26 835 469 1826 469 1826 1382 2003 1382 2006.2 670 3014 670 3485 1023 3836 1023 3836 791 4579.77 791 4580 1382 4756 1382 4756 380 5157 380 5157 1023 5917 1023 6631 273 6961 273 7453 648 7622 478 8131 478 8131 862 8399 862 8399 1300" style="fill: none;stroke: #aafdff;stroke-miterlimit: 10;stroke-width: 10px;fill-rule: evenodd"/>
  </g>
</svg>
